HIERARCHY
ROOT Hips
{
	OFFSET 0.000000 0.000000 0.000000 
	CHANNELS 6 Xposition Yposition Zposition Zrotation Yrotation Xrotation
	JOINT LeftUpLeg
	{
		OFFSET 1.363060 -1.794630 0.839290 
		CHANNELS 3 Zrotation Yrotation Xrotation
		JOINT LeftLeg
		{
			OFFSET 2.448110 -6.726130 0.000000 
			CHANNELS 3 Zrotation Yrotation Xrotation
			JOINT LeftFoot
			{
				OFFSET 2.562200 -7.039590 0.000000 
				CHANNELS 3 Zrotation Yrotation Xrotation
				JOINT LeftToeBase
				{
					OFFSET 0.157640 -0.433110 2.322550 
					CHANNELS 3 Zrotation Yrotation Xrotation
					End Site
					{
						OFFSET 0.000000 0.000000 0.000000 
					}
				}
			}
		}
	}
	JOINT RightUpLeg
	{
		OFFSET -1.305520 -1.794630 0.839290 
		CHANNELS 3 Zrotation Yrotation Xrotation
		JOINT RightLeg
		{
			OFFSET -2.542530 -6.985550 0.000000 
			CHANNELS 3 Zrotation Yrotation Xrotation
			JOINT RightFoot
			{
				OFFSET -2.568260 -7.056230 0.000000 
				CHANNELS 3 Zrotation Yrotation Xrotation
				JOINT RightToeBase
				{
					OFFSET -0.164730 -0.452590 2.363150 
					CHANNELS 3 Zrotation Yrotation Xrotation
					End Site
					{
						OFFSET 0.000000 0.000000 0.000000 
					}
				}
			}
		}
	}
	JOINT Spine
	{
		OFFSET 0.028270 2.035590 -0.193380 
		CHANNELS 3 Zrotation Yrotation Xrotation
		JOINT Spine1
		{
			OFFSET 0.056720 2.048850 -0.042750 
			CHANNELS 3 Zrotation Yrotation Xrotation
			JOINT Neck1
			{
				OFFSET -0.054170 1.746240 0.172020 
				CHANNELS 3 Zrotation Yrotation Xrotation
				JOINT Head
				{
					OFFSET 0.104070 1.761360 -0.123970 
					CHANNELS 3 Zrotation Yrotation Xrotation
					End Site
					{
						OFFSET 0.000000 0.000000 0.000000 
					}
				}
			}
			JOINT LeftArm
			{
				OFFSET 3.362410 1.200890 -0.311210 
				CHANNELS 3 Zrotation Yrotation Xrotation
				JOINT LeftForeArm
				{
					OFFSET 4.983000 -0.000000 -0.000000 
					CHANNELS 3 Zrotation Yrotation Xrotation
					JOINT LeftHand
					{
						OFFSET 3.483560 -0.000000 -0.000000 
						CHANNELS 3 Zrotation Yrotation Xrotation
						JOINT LeftHandIndex1
						{
							OFFSET 0.715260 -0.000000 -0.000000 
							CHANNELS 3 Zrotation Yrotation Xrotation
							End Site
							{
								OFFSET 0.000000 0.000000 0.000000 
							}
						}
					}
				}
			}
			JOINT RightArm
			{
				OFFSET -3.136600 1.374050 -0.404650 
				CHANNELS 3 Zrotation Yrotation Xrotation
				JOINT RightForeArm
				{
					OFFSET -5.241900 -0.000000 -0.000000 
					CHANNELS 3 Zrotation Yrotation Xrotation
					JOINT RightHand
					{
						OFFSET -3.444170 -0.000000 -0.000000 
						CHANNELS 3 Zrotation Yrotation Xrotation
						JOINT RightHandIndex1
						{
							OFFSET -0.622530 -0.000000 -0.000000 
							CHANNELS 3 Zrotation Yrotation Xrotation
							End Site
							{
								OFFSET 0.000000 0.000000 0.000000 
							}
						}
					}
				}
			}
		}
	}
}
MOTION
Frames: 12
Frame Time: 0.041667
26.306554 16.287510 3.883919 178.934640 -85.182173 165.061272 4.200668 9.196468 -32.569714 2.822561 12.475499 25.772864 7.514579 3.618301 60.630084 0.411000 -4.115500 -11.401900 0.045916 -11.601524 -35.620363 -7.675905 -14.648365 29.354413 -3.313705 -24.073146 57.154301 -0.000900 -0.193700 0.532100 0.632078 1.922176 -1.084543 -0.377251 -1.006429 6.939522 1.241009 12.597287 14.228753 -1.317700 4.682200 14.048400 -81.011969 -28.851451 51.698418 49.194905 -47.014737 -39.332773 -2.001174 -6.053612 16.066422 -7.125000 0.000000 0.000000 77.594248 31.491272 47.813234 -48.926658 47.808458 -37.673211 1.314841 -0.440633 3.860655 7.125000 0.000000 0.000000 
26.306677 16.287632 3.890666 176.981953 -85.193892 167.172469 4.138458 9.118302 -32.659759 2.833613 12.508156 25.742901 7.488126 3.760692 60.675838 0.395300 -4.036900 -11.180400 0.236600 -11.907495 -35.965188 -7.634085 -14.603115 29.413189 -3.524656 -23.542470 57.453163 -0.053400 1.490900 -4.100800 0.626518 1.919572 -1.088858 -0.277936 -0.999335 6.923651 1.244447 12.500545 14.176360 -1.295400 4.647000 13.885900 -81.238084 -28.756200 51.802545 49.032140 -46.955264 -39.115841 -2.076991 -5.972292 16.218153 -7.125000 0.000000 0.000000 77.812108 31.326395 47.827465 -48.813902 47.793507 -37.580234 1.302226 -0.444256 4.079153 7.125000 0.000000 0.000000 
26.303365 16.281376 3.911397 175.754719 -85.376327 168.555364 3.980904 9.055825 -32.821451 2.847794 12.546793 25.772844 7.420943 3.928261 60.571272 0.408300 -4.102000 -11.363800 0.450829 -12.347040 -36.360378 -7.586247 -14.533584 29.458456 -3.737764 -22.953763 57.737401 -0.217600 3.003200 -8.287700 0.632486 1.792731 -1.093811 -0.203122 -1.041055 6.934300 1.239388 12.394298 14.111032 -1.235000 4.596500 13.670700 -81.541215 -28.717597 51.914964 49.016985 -46.959820 -39.080503 -2.103262 -5.958800 16.211717 -7.125000 0.000000 0.000000 78.121783 31.160435 47.939908 -48.684175 47.782034 -37.435823 1.298962 -0.473121 4.434989 7.125000 0.000000 0.000000 
26.301157 16.274139 3.928202 178.612965 -85.559178 165.694309 4.056538 8.921614 -32.796098 2.865076 12.561807 25.814176 7.400759 3.930387 60.488778 0.419300 -4.156100 -11.516300 0.626306 -12.603155 -36.511842 -7.574704 -14.515701 29.470182 -3.748556 -22.901791 57.743070 -0.212900 2.970500 -8.196600 0.645229 1.650252 -1.105847 -0.342411 -1.073419 6.827814 1.212355 12.322655 14.068735 -1.233000 4.571200 13.566600 -81.676019 -28.614572 51.890223 49.063553 -46.979761 -39.155754 -2.073333 -5.954005 16.359298 -7.125000 0.000000 0.000000 78.184010 30.997255 48.032933 -48.744357 47.817771 -37.436806 1.317673 -0.505873 4.564652 7.125000 0.000000 0.000000 
26.301034 16.270459 3.935685 179.940540 -85.533417 164.366518 4.227148 8.705303 -32.693501 2.900252 12.600248 25.847512 7.399574 3.950920 60.511055 0.403000 -4.075800 -11.289900 0.723580 -12.679503 -36.581616 -7.536232 -14.499893 29.445140 -3.797943 -22.792221 57.820250 -0.206600 2.926700 -8.074700 0.643467 1.629105 -1.120220 -0.518073 -1.041983 6.686068 1.141526 12.221082 14.056046 -1.353300 4.546300 13.576700 -81.740221 -28.506216 51.926906 49.101765 -46.988886 -39.196521 -2.060184 -5.969857 16.521235 -7.125000 0.000000 0.000000 77.794755 30.808484 47.937267 -49.018845 47.924470 -37.696562 1.343896 -0.472426 4.302898 7.125000 0.000000 0.000000 
26.295637 16.269846 3.937157 178.562853 -85.440867 165.784499 4.292578 8.496692 -32.624308 2.953764 12.666702 25.866679 7.350991 4.214490 60.500117 0.400500 -4.063200 -11.254500 0.638761 -12.678019 -36.545073 -7.490307 -14.457320 29.294779 -3.861645 -22.761538 57.934034 -0.128800 2.313700 -6.373300 0.631840 1.647999 -1.121072 -0.558455 -1.011159 6.681170 1.114935 12.141478 14.067049 -1.408700 4.517000 13.598700 -81.761075 -28.497390 51.930294 49.038614 -46.959545 -39.129860 -2.055236 -5.976718 16.612220 -7.125000 0.000000 0.000000 77.511651 30.651724 47.846530 -49.360713 48.082646 -38.063574 1.363493 -0.421932 4.051639 7.125000 0.000000 0.000000 
26.281530 16.267269 3.933845 175.830348 -85.153691 168.539133 4.071734 8.889569 -32.805220 2.952973 12.642507 25.929362 7.350925 4.166178 60.452885 0.413900 -4.129500 -11.441300 0.439815 -12.441989 -36.388383 -7.458234 -14.442949 29.143170 -3.865175 -22.856704 57.962298 -0.075800 1.776500 -4.888400 0.607365 1.771508 -1.114461 -0.483749 -0.955833 6.722240 1.181651 12.101307 14.090514 -1.321300 4.489100 13.603600 -81.740388 -28.505548 51.874529 48.979537 -46.935531 -39.074764 -2.051469 -5.972110 16.714856 -7.125000 0.000000 0.000000 77.844878 30.554591 47.858484 -49.461687 48.151146 -38.175862 1.364514 -0.446105 4.233738 7.125000 0.000000 0.000000 
26.286927 16.274998 3.937402 177.075184 -85.179757 167.154153 4.188107 8.735209 -32.631124 2.969634 12.650939 25.905477 7.333513 4.304799 60.427041 0.433200 -4.223600 -11.706700 0.418116 -12.431980 -36.252417 -7.431860 -14.423308 29.032911 -3.841464 -23.017724 57.946585 -0.079800 1.821800 -5.013500 0.616526 1.738668 -1.118945 -0.405414 -1.008347 6.618454 1.237606 12.110776 14.089370 -1.246300 4.481600 13.633700 -81.727744 -28.518182 51.677382 48.956945 -46.893789 -39.062230 -2.058628 -5.966615 16.801769 -7.125000 0.000000 0.000000 78.272743 30.639561 47.929873 -49.298110 48.052705 -37.995901 1.350315 -0.478932 4.473222 7.125000 0.000000 0.000000 
26.291343 16.289227 3.929429 178.888869 -85.111544 165.313930 4.304158 8.774622 -32.537306 2.949280 12.608144 25.844259 7.374859 4.216802 60.470351 0.443900 -4.274900 -11.851400 0.472735 -12.364549 -36.169713 -7.396351 -14.421888 28.955428 -3.811403 -23.159835 57.929329 -0.077600 1.796700 -4.944100 0.618902 1.785796 -1.107491 -0.366292 -1.019758 6.696466 1.316411 12.086533 14.106156 -1.170100 4.471700 13.659400 -81.646872 -28.637384 51.544026 48.853876 -46.837384 -38.970466 -2.061327 -5.968496 16.798136 -7.125000 0.000000 0.000000 78.549990 30.785374 47.934667 -49.052923 47.938038 -37.758598 1.335781 -0.492084 4.565402 7.125000 0.000000 0.000000 
26.284596 16.297691 3.905141 179.097019 -84.946896 165.095346 4.311108 8.988279 -32.549577 2.913770 12.556998 25.804475 7.428994 4.046250 60.518816 0.434300 -4.228900 -11.721400 0.516285 -12.289890 -36.119278 -7.367957 -14.418095 28.938040 -3.818818 -23.150972 57.953797 -0.078200 1.804300 -4.965000 0.620838 2.080490 -1.107658 0.111690 -0.999922 6.618962 1.457655 11.979755 14.127621 -1.000800 4.389500 13.669300 -81.872798 -28.657223 51.640615 48.744343 -46.774229 -38.787852 -2.085079 -5.946488 16.843581 -7.125000 0.000000 0.000000 78.210870 30.672083 47.752254 -48.946275 47.892996 -37.717106 1.337223 -0.496770 4.411581 7.125000 0.000000 0.000000 
26.283002 16.310817 3.883674 178.335194 -84.802733 165.784040 4.282205 9.178769 -32.523001 2.879499 12.508752 25.764081 7.474189 3.922692 60.582589 0.416600 -4.142900 -11.479100 0.458915 -12.153862 -35.973076 -7.354960 -14.421036 28.909265 -3.793281 -23.215261 57.919577 -0.083900 1.868400 -5.142000 0.605116 2.321390 -1.096852 0.341012 -0.932504 6.634619 1.589824 11.793791 14.164759 -0.798700 4.265300 13.690100 -81.978381 -28.797432 51.957862 48.743824 -46.759439 -38.707702 -2.125584 -5.979065 16.931358 -7.125000 0.000000 0.000000 77.605239 30.686549 47.372090 -49.070468 47.927644 -37.912980 1.346356 -0.478465 4.023574 7.125000 0.000000 0.000000 
26.282266 16.315233 3.880607 177.967549 -84.752889 166.122789 4.284317 9.206365 -32.499280 2.867662 12.496271 25.740791 7.490416 3.891072 60.624769 0.409200 -4.106300 -11.376000 0.432165 -12.120755 -35.934052 -7.348911 -14.418840 28.903453 -3.783643 -23.205070 57.894609 -0.081100 1.837100 -5.055600 0.595961 2.400619 -1.095483 0.356402 -0.888721 6.604982 1.665343 11.675344 14.221224 -0.711800 4.201100 13.731900 -82.105469 -28.859144 52.286314 48.821461 -46.780806 -38.713106 -2.185956 -6.048762 17.083327 -7.125000 0.000000 0.000000 77.286273 30.602692 47.159849 -49.315374 48.024280 -38.201898 1.357955 -0.430991 3.861756 7.125000 0.000000 0.000000 
